<svg xmlns="http://www.w3.org/2000/svg" width="16" height="16" viewBox="0 0 16 16"><g class="nc-icon-wrapper" stroke-width="1" fill="#ffffff" stroke="#ffffff"><path d="M9.178,10.529,8.119,11.854A11.187,11.187,0,0,1,4.146,7.881L5.471,6.822a.9.9,0,0,0,.26-1.068L4.524,3.036A.9.9,0,0,0,3.475,2.53l-2.3.6a.9.9,0,0,0-.668,1A13.35,13.35,0,0,0,11.874,15.491a.9.9,0,0,0,1-.668l.6-2.3a.9.9,0,0,0-.506-1.048L10.246,10.27A.9.9,0,0,0,9.178,10.529Z" fill="none" stroke="#ffffff" stroke-linecap="round" stroke-linejoin="round"></path><path data-color="color-2" d="M8.5,4A3.5,3.5,0,0,1,12,7.5" fill="none" stroke-linecap="round" stroke-linejoin="round"></path><path data-color="color-2" d="M8.5,1A6.5,6.5,0,0,1,15,7.5" fill="none" stroke-linecap="round" stroke-linejoin="round"></path></g></svg>